<?xml version="1.0" encoding="utf-8"?>
<!-- Generator: Adobe Illustrator 16.0.0, SVG Export Plug-In . SVG Version: 6.00 Build 0)  -->
<svg version="1.2" baseProfile="tiny" id="BBB_logo_artwork"
	 xmlns="http://www.w3.org/2000/svg" xmlns:xlink="http://www.w3.org/1999/xlink" x="0px" y="0px" width="132.173px"
	 height="200.869px" viewBox="0 0 132.173 200.869" xml:space="preserve">
<g>
	<path fill="#A9A9A9" d="M2.484,154.329h17.364c3.438,0,6,0.144,7.689,0.43s3.2,0.884,4.534,1.793
		c1.333,0.908,2.444,2.118,3.333,3.629c0.889,1.512,1.333,3.206,1.333,5.082c0,2.035-0.548,3.901-1.645,5.601
		c-1.097,1.699-2.583,2.974-4.459,3.822c2.647,0.771,4.682,2.085,6.104,3.941s2.133,4.04,2.133,6.548
		c0,1.976-0.459,3.896-1.378,5.764c-0.918,1.867-2.173,3.358-3.763,4.475c-1.59,1.116-3.551,1.803-5.882,2.06
		c-1.462,0.158-4.988,0.257-10.578,0.296H2.484V154.329z M11.255,161.558v10.046h5.749c3.417,0,5.541-0.05,6.371-0.148
		c1.501-0.178,2.682-0.696,3.541-1.556s1.289-1.99,1.289-3.393c0-1.344-0.371-2.435-1.111-3.274s-1.842-1.349-3.304-1.526
		c-0.869-0.099-3.368-0.148-7.497-0.148H11.255z M11.255,178.833v11.615h8.119c3.161,0,5.166-0.089,6.015-0.267
		c1.304-0.236,2.366-0.814,3.186-1.733c0.819-0.918,1.23-2.148,1.23-3.688c0-1.304-0.316-2.41-0.948-3.319
		c-0.633-0.908-1.546-1.57-2.741-1.985c-1.195-0.414-3.788-0.622-7.778-0.622H11.255z"/>
</g>
<g>
	<path fill="#A9A9A9" d="M44.607,154.329h17.364c3.438,0,6,0.144,7.689,0.43c1.689,0.286,3.201,0.884,4.534,1.793
		c1.333,0.908,2.444,2.118,3.333,3.629c0.89,1.512,1.334,3.206,1.334,5.082c0,2.035-0.549,3.901-1.645,5.601
		c-1.097,1.699-2.583,2.974-4.459,3.822c2.646,0.771,4.682,2.085,6.104,3.941s2.133,4.04,2.133,6.548
		c0,1.976-0.459,3.896-1.377,5.764c-0.919,1.867-2.174,3.358-3.764,4.475s-3.551,1.803-5.882,2.06
		c-1.462,0.158-4.988,0.257-10.578,0.296H44.607V154.329z M53.378,161.558v10.046h5.749c3.417,0,5.541-0.05,6.371-0.148
		c1.501-0.178,2.682-0.696,3.542-1.556s1.289-1.99,1.289-3.393c0-1.344-0.371-2.435-1.111-3.274
		c-0.741-0.84-1.843-1.349-3.305-1.526c-0.869-0.099-3.368-0.148-7.497-0.148H53.378z M53.378,178.833v11.615h8.119
		c3.161,0,5.166-0.089,6.015-0.267c1.305-0.236,2.366-0.814,3.186-1.733c0.82-0.918,1.23-2.148,1.23-3.688
		c0-1.304-0.316-2.41-0.948-3.319c-0.633-0.908-1.546-1.57-2.741-1.985c-1.195-0.414-3.788-0.622-7.778-0.622H53.378z"/>
</g>
<g>
	<path fill="#A9A9A9" d="M85.933,154.329h17.363c3.438,0,6,0.144,7.689,0.43s3.201,0.884,4.533,1.793
		c1.334,0.908,2.445,2.118,3.334,3.629c0.889,1.512,1.334,3.206,1.334,5.082c0,2.035-0.549,3.901-1.645,5.601
		c-1.098,1.699-2.584,2.974-4.459,3.822c2.646,0.771,4.682,2.085,6.104,3.941s2.133,4.04,2.133,6.548
		c0,1.976-0.459,3.896-1.377,5.764c-0.92,1.867-2.174,3.358-3.764,4.475s-3.551,1.803-5.883,2.06
		c-1.461,0.158-4.988,0.257-10.578,0.296H85.933V154.329z M94.704,161.558v10.046h5.749c3.416,0,5.541-0.05,6.37-0.148
		c1.501-0.178,2.683-0.696,3.542-1.556s1.289-1.99,1.289-3.393c0-1.344-0.371-2.435-1.111-3.274
		c-0.742-0.84-1.844-1.349-3.305-1.526c-0.869-0.099-3.369-0.148-7.497-0.148H94.704z M94.704,178.833v11.615h8.118
		c3.161,0,5.166-0.089,6.016-0.267c1.305-0.236,2.365-0.814,3.186-1.733c0.82-0.918,1.23-2.148,1.23-3.688
		c0-1.304-0.316-2.41-0.949-3.319c-0.633-0.908-1.545-1.57-2.74-1.985c-1.195-0.414-3.789-0.622-7.779-0.622H94.704z"/>
</g>
<g>
	<path fill="#A9A9A9" d="M121.996,196.171l0.914-0.089c0.055,0.307,0.167,0.532,0.335,0.677c0.169,0.144,0.395,0.216,0.681,0.216
		c0.303,0,0.531-0.064,0.685-0.192s0.229-0.277,0.229-0.449c0-0.11-0.032-0.203-0.097-0.28c-0.064-0.078-0.178-0.145-0.338-0.202
		c-0.11-0.038-0.361-0.105-0.753-0.203c-0.503-0.125-0.856-0.278-1.06-0.46c-0.286-0.256-0.429-0.568-0.429-0.937
		c0-0.236,0.068-0.458,0.202-0.665c0.135-0.206,0.328-0.363,0.581-0.471c0.253-0.108,0.558-0.162,0.915-0.162
		c0.584,0,1.023,0.128,1.319,0.384c0.295,0.257,0.449,0.598,0.464,1.025l-0.939,0.041c-0.04-0.239-0.126-0.411-0.258-0.516
		s-0.331-0.157-0.596-0.157c-0.272,0-0.486,0.057-0.641,0.169c-0.1,0.071-0.149,0.168-0.149,0.288c0,0.11,0.047,0.204,0.14,0.283
		c0.118,0.099,0.406,0.203,0.863,0.311s0.795,0.22,1.015,0.335c0.219,0.115,0.39,0.272,0.514,0.473s0.186,0.447,0.186,0.741
		c0,0.267-0.074,0.516-0.223,0.749c-0.147,0.232-0.357,0.405-0.628,0.519c-0.271,0.113-0.608,0.17-1.013,0.17
		c-0.588,0-1.04-0.136-1.355-0.408C122.246,197.088,122.057,196.692,121.996,196.171z"/>
	<path fill="#A9A9A9" d="M126.556,197.686v-4.653h1.406l0.844,3.174l0.835-3.174h1.409v4.653h-0.873v-3.663l-0.924,3.663h-0.904
		l-0.92-3.663v3.663H126.556z"/>
</g>
<polygon fill="#A9A9A9" points="99.074,125.473 25.229,125.473 22.438,133.847 42.104,133.847 46.164,146.154 78.138,146.154 
	82.199,133.847 101.865,133.847 "/>
<path fill="#A9A9A9" d="M62.853,3.844c-0.397,2.646-1.058,9.525,5.027,13.759c5.431,3.778,16.109,11.323,28.178,20.505
	c12.918,9.828,6.814,27.3,1.984,33.337c-1.652,2.065-17.462,23.284-17.462,23.284s4.453-11.958-2.234-17.359L49.624,55.306
	c-7.276-5.821-9.261-20.77-2.381-31.089C52.34,16.571,62.853,3.844,62.853,3.844z"/>
<path fill="#A9A9A9" d="M47.571,62.483c0,0-1.627,5.599,3.786,9.208L71.93,87.845c3.91,3.409,5.013,12.23,1.403,17.543
	c-2.985,4.395-11.628,15.337-11.628,15.337s1.403-5.613-3.609-8.922L38.148,96.266c-3.809-3.409-7.217-9.824-1.704-19.047
	C39.399,72.275,47.571,62.483,47.571,62.483z"/>
</svg>
