<?xml version="1.0" encoding="utf-8"?>
<!-- Generator: Adobe Illustrator 16.0.0, SVG Export Plug-In . SVG Version: 6.00 Build 0)  -->
<!DOCTYPE svg PUBLIC "-//W3C//DTD SVG 1.1//EN" "http://www.w3.org/Graphics/SVG/1.1/DTD/svg11.dtd">
<svg version="1.1" id="Capa_1" xmlns="http://www.w3.org/2000/svg" xmlns:xlink="http://www.w3.org/1999/xlink" x="0px" y="0px"
	 width="45.636px" height="84.41px" viewBox="72.485 17.795 45.636 84.41" enable-background="new 72.485 17.795 45.636 84.41"
	 xml:space="preserve">
<g>
	<path fill="#059FDB" d="M116.402,17.813l-10.945-0.018c-12.298,0-20.246,8.154-20.246,20.773v9.578H74.206
		c-0.951,0-1.721,0.77-1.721,1.722v13.877c0,0.951,0.771,1.721,1.721,1.721h11.005v35.018c0,0.951,0.77,1.721,1.721,1.721h14.36
		c0.949,0,1.721-0.771,1.721-1.721V65.467h12.867c0.953,0,1.723-0.77,1.723-1.721l0.006-13.877c0-0.458-0.182-0.895-0.506-1.218
		c-0.322-0.323-0.76-0.504-1.217-0.504h-12.873v-8.119c0-3.903,0.93-5.884,6.012-5.884l7.375-0.003c0.951,0,1.721-0.771,1.721-1.722
		V19.534C118.121,18.585,117.352,17.815,116.402,17.813z"/>
</g>
</svg>
