<?xml version="1.0" encoding="utf-8"?>
<!-- Generator: Adobe Illustrator 16.0.0, SVG Export Plug-In . SVG Version: 6.00 Build 0)  -->
<svg version="1.2" baseProfile="tiny" id="Layer_1" xmlns="http://www.w3.org/2000/svg" xmlns:xlink="http://www.w3.org/1999/xlink"
	 x="0px" y="0px" width="187.086px" height="75.535px" viewBox="0 0 187.086 75.535" xml:space="preserve">
<g>
	<polygon fill="#A9A9A9" points="18.7,17.7 18.7,29.7 39.2,29.7 39.2,45.5 18.7,45.5 18.7,73.6 0,73.6 0,1.9 41.3,1.9 41.3,17.7 	
		"/>
	<path fill="#A9A9A9" d="M44.761,1.923v71.687h18.534V57.701V17.66h4.371c12.064,0,20.5,7.2,20.5,20.108
		c0,13.985-9.442,19.933-20.632,19.933h-4.196v15.908h7.868c19.758,0,36.369-15.732,36.369-35.841
		c0-20.283-16.436-35.845-36.369-35.845H44.761L44.761,1.923z"/>
	<polygon fill="#A9A9A9" points="110.2,73.6 128.9,73.6 128.9,1.9 110.2,1.9 	"/>
	<path fill="#A9A9A9" d="M186.212,25.878c-3.847-5.071-9.966-7.868-16.437-7.868c-11.364,0-19.06,8.742-19.06,19.932
		c0,11.399,7.9,19.399,19.4,19.408c6.118,0,12.237-2.974,16.086-7.519V72.21c-6.119,1.75-10.665,3.322-16.437,3.322
		c-9.967,0-19.584-3.847-26.928-10.666c-7.867-7.168-11.539-16.437-11.539-27.1c0-9.792,3.848-19.234,10.665-26.228
		C148.971,4.4,159.1,0,169.3,0c5.944,0,11.4,1.4,17,3.672v22.206H186.212z"/>
</g>
</svg>
