<?xml version="1.0" encoding="utf-8"?>
<!-- Generator: Adobe Illustrator 16.0.0, SVG Export Plug-In . SVG Version: 6.00 Build 0)  -->
<!DOCTYPE svg PUBLIC "-//W3C//DTD SVG 1.1//EN" "http://www.w3.org/Graphics/SVG/1.1/DTD/svg11.dtd">
<svg version="1.1" id="Capa_1" xmlns="http://www.w3.org/2000/svg" xmlns:xlink="http://www.w3.org/1999/xlink" x="0px" y="0px"
	 width="86.519px" height="84.967px" viewBox="56.741 17.517 86.519 84.967" enable-background="new 56.741 17.517 86.519 84.967"
	 xml:space="preserve">
<g>
	<path fill="#059FDB" d="M61.331,38.703c0,7.21,2.408,12.416,7.156,15.474c3.887,2.505,8.401,2.879,10.746,2.879
		c0.57,0,1.025-0.022,1.345-0.043c0,0-0.744,4.842,2.847,9.637l-0.162-0.001c-6.223,0.001-26.521,1.301-26.521,17.987
		c0,16.979,18.644,17.841,22.383,17.841c0.292,0,0.463-0.006,0.463-0.006c0.042,0,0.309,0.012,0.764,0.012
		c2.4,0,8.604-0.301,14.366-3.103c7.474-3.63,11.266-9.938,11.266-18.756c0-8.521-5.776-13.593-9.993-17.298
		c-2.574-2.259-4.798-4.208-4.798-6.104c0-1.932,1.624-3.384,3.678-5.224c3.327-2.975,6.46-7.209,6.46-15.212
		c0-7.035-0.913-11.758-6.534-14.754c0.587-0.3,2.657-0.519,3.683-0.66c3.048-0.416,7.503-0.888,7.503-3.375v-0.481H83.781
		C83.558,17.522,61.331,18.346,61.331,38.703z M97.168,82.213c0.424,6.792-5.385,11.801-14.104,12.437
		c-8.857,0.646-16.151-3.342-16.574-10.122c-0.206-3.258,1.227-6.454,4.032-8.997c2.845-2.576,6.751-4.163,11-4.478
		c0.502-0.032,1-0.052,1.496-0.052C91.215,71.001,96.767,75.817,97.168,82.213z M91.371,34.057
		c2.178,7.661-1.11,15.669-6.351,17.147c-0.602,0.169-1.226,0.255-1.856,0.255c-4.801,0-9.558-4.856-11.32-11.548
		c-0.985-3.759-0.906-7.044,0.224-10.204c1.11-3.107,3.104-5.207,5.614-5.913c0.603-0.171,1.229-0.257,1.857-0.257
		C85.336,23.538,89.063,25.941,91.371,34.057z M128.777,50.74V36.258h-9.172V50.74h-14.483v9.173h14.483v14.483h9.172V59.913h14.482
		V50.74H128.777z"/>
</g>
</svg>
