<?xml version="1.0" encoding="UTF-8" standalone="no"?>
<svg width="284px" height="49px" viewBox="0 0 284 49" version="1.1" xmlns="http://www.w3.org/2000/svg" xmlns:xlink="http://www.w3.org/1999/xlink">
    <!-- Generator: Sketch 47.1 (45422) - http://www.bohemiancoding.com/sketch -->
    <title>BAR_Landscape_2C_V</title>
    <desc>Created with Sketch.</desc>
    <defs>
        <path d="M22.5205292,48.94 C24.4875211,48.367611 27.3094507,46.9328069 28.721,46.144 C30.592,45.099 32.13,44.054 33.706,42.756 L34.137,42.405 C34.425,42.168 34.664,41.974 34.766,41.869 C34.714,41.789 34.611,41.668 34.549,41.595 C34.495,41.53 34.441,41.468 34.396,41.409 C33.226,39.88 31.651,37.639 30.796,35.647 C30.29,34.467 29.661,32.832 29.53,31.762 C29.473,31.316 29.527,30.924 29.691,30.628 C29.76,30.503 29.861,30.418 29.979,30.345 C30.147,30.241 30.33,30.177 30.33,30.177 L30.455,30.441 C31.302,32.228 32.165,33.704 33.251,35.228 C34.691,37.239 35.881,38.246 36.325,38.584 C36.825,38.966 37.266,39.193 37.504,39.193 C37.525,39.193 37.563,39.191 37.593,39.168 C37.783,39.03 37.627,38.699 37.226,37.978 C37.158,37.857 37.086,37.727 37.015,37.594 C36.431,36.516 35.931,35.325 35.643,34.327 C35.382,33.414 35.282,32.914 35.276,32.482 C35.269,31.993 35.456,31.55 35.776,31.295 L36.078,31.058 L36.24,31.405 C36.558,32.083 37.147,32.977 37.415,33.356 C37.718,33.788 38.795,35.196 39.179,35.58 C39.441,35.843 39.611,36.02 39.725,36.139 C39.753,36.168 39.777,36.194 39.798,36.218 C39.922,36.049 40.144,35.688 40.446,35.196 L40.502,35.104 C41.444,33.563 42.321,31.738 43.037,29.827 C43.73,27.98 44.21,26.254 44.461,23.373 C44.611,21.653 44.719,19.747 44.5,17.469 C44.298,15.23 43.688,12.932 42.87,11.322 C42.372,10.34 41.653,9.095 40.513,8.183 C39.932,7.723 39.224,7.358 38.405,7.101 C37.804,6.91 37.169,6.814 36.519,6.814 L36.425,6.814 C35.594,6.825 34.043,7.023 33.001,8.233 C32.529,8.781 32.354,9.567 32.548,10.286 C32.711,10.89 33.106,11.337 33.665,11.547 C33.665,11.547 33.843,11.613 34.122,11.664 C34.042,11.819 33.848,12.092 33.848,12.092 C33.49,12.624 32.689,13.319 30.492,13.319 L30.366,13.318 C29.202,13.244 28.239,12.941 27.112,11.484 C26.414,10.582 26.06,9.067 26.008,6.573 C25.963,5.322 25.792,4.238 25.493,3.368 C25.292,2.785 24.822,2.172 24.371,1.88 C23.981,1.628 23.643,1.422 22.975,1.208 C22.223,0.966 21.268,0.929 20.551,0.914 L20.30963,0.914 C19.5293577,0.932972284 19.0788383,1.14237204 18.784,1.5 C18.729,1.566 18.718,1.598 18.645,1.592 C18.477,1.579 18.1,1.581 17.987,1.581 C17.456,1.581 16.983,1.666 16.535,1.76 C15.588,1.959 15.003,2.352 14.485,2.767 C14.244,2.96 13.786,3.5 13.681,4.076 C13.593,4.563 13.683,4.835 13.783,5.076 C13.8,5.116 13.863,5.19 13.875,5.233 C14.159,4.937 14.629,4.706 15.519,4.702 C16.512,4.698 17.871,5.152 18.348,5.921 C19.026,7.017 18.891,7.904 18.748,8.959 C18.382,11.659 17.382,13.062 15.161,13.371 C14.776,13.424 14.396,13.451 14.032,13.451 C12.472,13.451 11.334,12.957 10.751,12.017 C10.594,11.764 10.576,11.682 10.576,11.682 C10.576,11.682 10.751,11.639 10.903,11.567 C11.494,11.289 11.939,10.878 12.101,10.245 C12.28,9.54 12.098,8.748 11.635,8.228 C10.8,7.286 9.641,6.809 8.188,6.809 C7.382,6.809 6.668,6.961 6.211,7.089 C4.383,7.602 2.925,8.985 1.755,11.321 C0.926,12.973 0.347,15.154 0.125,17.465 C0.0988839759,17.7326597 0.0773762812,17.9954039 0.0599999995,18.253513 L0.06,21.9940965 C0.088286279,22.468143 0.124276952,22.927136 0.163,23.374 C0.412,26.253 0.893,27.979 1.588,29.827 C2.303,31.738 3.179,33.563 4.148,35.146 C4.465,35.664 4.698,36.043 4.826,36.216 C4.847,36.194 4.87,36.17 4.898,36.141 C5.012,36.022 5.182,35.843 5.445,35.58 C5.825,35.2 6.904,33.79 7.209,33.356 C7.519,32.918 8.087,32.038 8.384,31.405 L8.546,31.058 L8.847,31.295 C9.169,31.55 9.356,31.993 9.349,32.482 C9.343,32.912 9.243,33.412 8.98,34.329 C8.693,35.323 8.194,36.514 7.61,37.594 C7.539,37.725 7.47,37.851 7.402,37.972 C7.02,38.656 6.858,38.991 7.001,39.143 L7.045,39.178 C7.062,39.191 7.1,39.193 7.12,39.193 C7.356,39.193 7.807,38.96 8.299,38.584 C8.745,38.244 9.936,37.237 11.372,35.228 C12.458,33.706 13.321,32.228 14.169,30.441 L14.294,30.178 L14.563,30.291 C14.711,30.354 14.849,30.48 14.933,30.63 C15.096,30.924 15.152,31.315 15.096,31.76 C14.962,32.838 14.332,34.469 13.826,35.647 C12.97,37.645 11.396,39.884 10.227,41.409 C10.181,41.468 9.898,41.805 9.852,41.863 C9.949,41.964 10.187,42.16 10.476,42.396 L10.917,42.756 C12.521,44.073 14.011,45.087 15.904,46.144 C17.3155493,46.9328069 20.1365468,48.367611 22.1052743,48.94 L22.5205292,48.94 L22.5205292,48.94 Z" id="path-1"></path>
    </defs>
    <g id="Android" stroke="none" stroke-width="1" fill="none" fill-rule="evenodd">
        <g id="logo" transform="translate(0.000000, -1.000000)">
            <g id="BAR_Landscape_2C_V" transform="translate(0.000000, 1.000000)">
                <g id="Group-3">
                    <mask id="mask-2" fill="white">
                        <use xlink:href="#path-1"></use>
                    </mask>
                    <use id="Clip-2" fill="#00AEEF" xlink:href="#path-1"></use>
                    <polygon id="Fill-1" mask="url(#mask-2)" points="0.06 48.94 283.322 48.94 283.322 0.914 0.06 0.914"></polygon>
                </g>
                <path d="M282.404,14.736 C280.934,12.092 277.783,10.068 274.348,10.068 C271.34,10.068 268.682,11.313 268.682,14.507 C268.682,17.212 272.018,19.041 275.492,21.286 C279.293,23.663 283.225,26.595 283.225,31.668 C283.225,38.305 276.779,42.365 269.32,42.365 C266.254,42.365 263.045,41.783 259.443,40.418 L260.033,31.574 C261.777,35.096 265.023,37.896 269.824,37.896 C273.521,37.896 276.275,36.107 276.275,32.986 C276.275,30.345 274.025,28.701 271.287,27.045 C265.531,23.569 261.861,20.792 261.861,15.74 C261.861,8.202 268.176,5.68 274.713,5.68 C278.516,5.68 280.893,6.383 283.322,6.383 L282.404,14.736 Z M250.428,22.659 C249.602,24.036 248.553,25.901 247.922,27.281 C247.359,29.879 247.088,33.361 247.088,37.209 C247.088,38.811 247.359,40.959 248.09,41.682 L238.527,41.682 C240.227,40.084 240.912,30.253 240.816,27.14 C239.533,22.691 237.799,18.45 235.139,13.276 C233.463,10.033 231.477,6.967 230.25,6.383 C232.4,6.187 235.139,6.057 236.473,6.057 C238.859,6.057 239.486,6.383 240.949,9.566 C243.24,14.736 244.943,18.633 245.939,21.524 C248.365,17.714 250.064,15.103 252.268,11.547 C252.811,10.669 253.268,9.566 253.268,8.517 C253.268,7.7 253.125,6.777 252.764,6.383 L262.225,6.383 C260.4,6.777 252.166,19.736 250.428,22.659 L250.428,22.659 Z M217.168,14.651 L211.496,26.955 L220.732,26.955 L217.168,14.651 L217.168,14.651 Z M228.273,42.021 C225.27,42.021 225.037,41.924 222.602,33.602 L221.742,30.519 C220.268,31.216 217.672,31.537 213.512,31.537 L209.301,31.537 L208.574,33.088 C207.516,35.42 206.092,38.164 206.092,40.084 C206.092,40.543 206.146,41.045 206.324,41.682 L181.343,41.682 C182.763,40.084 183.216,34.918 183.901,25.541 L184.055,23.301 C184.407,17.946 184.682,13.828 184.64,10.935 C184.592,8.573 184.36,7.048 183.714,6.383 L193.38,6.383 C192.011,7.428 191.501,13.092 190.864,22.471 L190.672,24.717 C190.452,28.191 189.988,31.779 189.988,35.234 C189.988,36.834 190.632,37.209 192.279,37.209 C198.136,37.209 199.608,37.074 202.249,35.281 C203.906,32.271 205.773,28.459 207.605,24.543 L210.078,19.271 C212.412,14.325 214.695,9.294 214.695,8.338 C214.695,7.643 214.52,7.008 214.24,6.383 L221.93,6.383 C221.93,6.383 225.037,17.897 225.723,20.371 L227.229,25.939 C229.834,35.336 231.477,39.899 233.68,41.682 C231.852,41.924 229.238,42.021 228.273,42.021 L228.273,42.021 Z M166.014,42.365 C156.916,42.365 151.654,34.877 151.654,26.458 C151.654,14.736 158.011,5.68 170.136,5.68 C173.925,5.68 175.72,6.383 178.788,6.383 L177.868,15.385 C176.129,12.224 173.299,10.068 169.487,10.068 C161.947,10.068 158.877,18.223 158.877,25.215 C158.877,32.82 163.138,36.977 168.808,36.977 C171.878,36.977 174.571,36.154 179.101,32.986 C177.269,38.857 173.017,42.365 166.014,42.365 L166.014,42.365 Z M134.454,10.669 C133.58,10.669 132.536,10.669 131.705,10.763 C131.433,12.265 131.203,14.875 130.887,19.087 L130.693,21.558 C131.157,21.643 131.748,21.694 132.299,21.694 C136.695,21.694 139.709,19.041 139.709,15.021 C139.709,12.265 137.79,10.669 134.454,10.669 L134.454,10.669 Z M147.218,43.201 C144.605,43.201 143.975,42.783 143.103,41.588 L133.208,27.879 C132.438,26.813 131.84,25.939 130.611,25.939 L130.384,25.939 L130.2,28.596 C129.965,32.224 129.833,35.096 129.833,37.254 C129.869,39.625 130.148,41.09 130.794,41.682 L121.232,41.682 C122.6,40.459 123.115,36.336 123.896,25.541 L124.02,23.301 C124.386,17.993 124.657,13.874 124.622,10.994 C124.582,8.473 124.303,6.926 123.612,6.383 C129.057,6.383 136.646,6.383 136.646,6.383 C140.905,6.383 146.756,7.103 146.756,14.009 C146.756,19.688 142.958,22.789 138.257,24.254 C138.709,24.672 139.525,25.715 140.031,26.366 L147.218,35.885 C151.699,41.783 152.063,42.053 153.662,42.879 C151.654,43.109 148.957,43.201 147.218,43.201 L147.218,43.201 Z M102.659,14.651 L96.938,26.955 L106.224,26.955 L102.659,14.651 L102.659,14.651 Z M113.774,42.021 C110.752,42.021 110.52,41.924 108.1,33.602 L107.229,30.519 C105.769,31.216 103.167,31.537 98.994,31.537 L94.789,31.537 L94.062,33.088 C93.319,34.727 91.545,38.117 91.586,40.084 C91.586,40.543 91.633,40.998 91.814,41.682 L83.348,41.682 C85.785,39.268 88.835,33.637 93.086,24.543 L95.561,19.271 C97.802,14.507 100.186,9.116 100.186,8.338 C100.186,7.643 100.004,7.008 99.726,6.383 L107.415,6.383 C107.415,6.383 109.42,14.009 111.213,20.371 L112.726,25.939 C115.337,35.336 116.983,39.899 119.167,41.682 C117.207,41.924 114.73,42.021 113.774,42.021 L113.774,42.021 Z M70.216,10.63 C69.531,10.63 68.619,10.63 67.743,10.72 C67.384,13.178 67.156,15.564 66.972,18.173 C66.972,18.173 66.839,20.416 66.839,20.321 L67.743,20.321 C72.232,20.321 76.355,18.76 76.355,14.651 C76.355,12.265 74.384,10.63 70.216,10.63 L70.216,10.63 Z M69.078,24.628 L66.572,24.628 L66.197,29.836 C66.02,32.119 65.922,34.039 65.88,36.336 C65.88,36.654 66.88,37.336 69.254,37.336 C74.192,37.336 77.46,34.877 77.46,30.802 C77.46,26.269 73.746,24.628 69.078,24.628 L69.078,24.628 Z M69.621,41.682 L57.272,41.682 C58.831,40.311 59.24,34.961 59.916,25.541 L60.068,23.337 C60.428,17.993 60.715,13.874 60.662,10.994 C60.613,8.517 60.336,6.926 59.653,6.383 L73.461,6.383 C76.759,6.383 83.348,6.557 83.348,13.418 C83.348,17.993 79.1,20.827 75.201,21.836 C80.705,22.381 84.814,25.036 84.814,30.703 C84.814,36.834 79.048,41.682 69.621,41.682 L69.621,41.682 Z" id="Fill-4" fill="#00AEEF"></path>
            </g>
        </g>
    </g>
</svg>