<?xml version="1.0" encoding="utf-8"?>
<!-- Generator: Adobe Illustrator 16.0.0, SVG Export Plug-In . SVG Version: 6.00 Build 0)  -->
<!DOCTYPE svg PUBLIC "-//W3C//DTD SVG 1.1//EN" "http://www.w3.org/Graphics/SVG/1.1/DTD/svg11.dtd">
<svg version="1.1" id="Layer_1" xmlns="http://www.w3.org/2000/svg" xmlns:xlink="http://www.w3.org/1999/xlink" x="0px" y="0px"
	 width="314.775px" height="169.967px" viewBox="0 0 314.775 169.967" enable-background="new 0 0 314.775 169.967"
	 xml:space="preserve">
<g>
	<path fill="#FFFFFF" d="M57.573,26.1c-26.996,0-48.961,21.963-48.961,48.961c0,26.997,21.965,48.961,48.961,48.961h204.072
		c26.994,0,48.959-21.965,48.959-48.961c0-26.998-21.965-48.961-48.959-48.961H57.573z"/>
	<path fill="#C8C8C8" d="M261.646,128.194H57.573c-29.297,0-53.131-23.838-53.131-53.133c0-29.296,23.834-53.131,53.131-53.131
		h204.072c29.296,0,53.13,23.835,53.13,53.131C314.776,104.356,290.942,128.194,261.646,128.194 M57.573,26.1
		c-26.996,0-48.961,21.963-48.961,48.961c0,26.997,21.965,48.961,48.961,48.961h204.072c26.994,0,48.959-21.965,48.959-48.961
		c0-26.998-21.965-48.961-48.959-48.961H57.573z"/>
	<path d="M237.167,45.329c-7.922,0-14.347,6.425-14.347,14.351c0,7.922,6.425,14.342,14.347,14.342
		c7.927,0,14.347-6.42,14.347-14.342C251.514,51.753,245.094,45.329,237.167,45.329 M237.167,67.038
		c-4.064,0-7.362-3.293-7.362-7.358c0-4.069,3.298-7.363,7.362-7.363c4.063,0,7.363,3.294,7.363,7.363
		C244.53,63.745,241.231,67.038,237.167,67.038"/>
	<path d="M171.366,45.329c-7.923,0-14.346,6.425-14.346,14.351c0,7.922,6.423,14.342,14.346,14.342
		c7.927,0,14.352-6.42,14.352-14.342C185.718,51.753,179.293,45.329,171.366,45.329 M171.366,67.038
		c-4.061,0-7.357-3.293-7.357-7.358c0-4.069,3.298-7.363,7.357-7.363c4.068,0,7.362,3.294,7.362,7.363
		C178.729,63.745,175.436,67.038,171.366,67.038"/>
	<path d="M221.896,67.438c-0.906,0.264-2.295,0.524-2.822,0.524c-2.452,0-2.985-0.845-2.985-3.192V51.516h5.865v-5.539h-5.865v-7.83
		h-6.602l-1.387,7.83h-4.598v0.004h-0.374c-3.761,0.018-6.597,2.312-8.415,5.905l-2.295-5.909h-4.733v27.53h8.089V61.528
		c0-6.037,3.567-9.894,7.795-10.013h4.426v13.686c0,6.442,3.303,8.838,8.68,8.838c2.774,0,4.901-0.586,6.178-1.009L221.896,67.438z"
		/>
	<polyline points="261.315,54.686 261.315,73.506 253.451,73.506 253.451,45.976 258.225,45.976 259.823,50.181 	"/>
	<path d="M259.788,50.208c2.391-2.774,5.662-4.875,9.494-4.875c6.552,0,9.246,5.223,9.246,10.067v18.107h-8.099V55.632
		c0-2.36-1.964-3.641-4.095-3.641c-2.269,0-3.727,1.299-5.007,2.686"/>
	<polygon points="125.468,36.011 134.482,36.011 146.86,59.587 146.86,36.011 154.326,36.011 154.326,73.511 146.159,73.511 
		132.937,47.588 132.937,73.511 125.468,73.511 	"/>
	<polygon fill="#A9A9A9" points="302.418,21.931 302.418,23.274 300.454,23.274 300.454,29.879 298.921,29.879 298.921,23.274 
		296.993,23.274 296.993,21.931 	"/>
	<polygon fill="#A9A9A9" points="303.519,29.879 303.519,21.931 305.593,21.931 306.971,27.136 308.371,21.931 310.468,21.931 
		310.468,29.879 309.203,29.879 309.203,23.661 309.168,23.661 307.562,29.879 306.438,29.879 304.817,23.661 304.782,23.661 
		304.782,29.879 	"/>
	<path fill="#A9A9A9" d="M123.218,106.742l1.871-2.91c1.52,1.123,3.801,2.166,6.583,2.166c2.704,0,4.373-1.226,4.373-3.353
		c0-2.446-2.109-3.096-5.575-4.302c-3.108-1.092-6.164-2.659-6.164-7.062c0-4.126,3.254-6.373,7.631-6.373
		c2.91,0,5.055,0.573,6.781,1.59l-1.497,3.096c-1.449-0.753-3.18-1.264-5.214-1.264c-2.439,0-3.901,0.92-3.901,2.854
		c0,2.271,1.695,2.85,4.884,3.896c3.324,1.078,6.983,2.616,6.983,7.494c0,4.127-2.95,6.848-8.243,6.848
		C127.802,109.424,124.917,108.067,123.218,106.742"/>
	<polygon fill="#A9A9A9" points="147.071,85.284 161.243,85.284 161.243,88.578 151.104,88.578 151.104,95.082 159.111,95.082 
		159.111,98.306 151.104,98.306 151.104,105.822 161.859,105.822 161.859,109.11 147.071,109.11 	"/>
	<path fill="#A9A9A9" d="M167.628,97.218c0-6.953,3.329-12.303,9.974-12.303c2.978,0,5.328,0.941,6.984,2.872l-2.353,2.721
		c-1.423-1.393-2.629-2.073-4.565-2.073c-3.901,0-5.702,3.191-5.702,9.088c0,5.535,1.901,8.341,5.737,8.341
		c2.131,0,3.628-1.118,4.939-2.511l2.374,2.646c-1.727,2.039-3.889,3.426-7.35,3.426
		C170.815,109.424,167.628,104.201,167.628,97.218"/>
	<path fill="#A9A9A9" d="M191.587,99.992V85.284h4.063v15.363c0,3.275,0.812,5.42,4.269,5.42c3.426,0,4.274-2.145,4.274-5.42V85.284
		h4.104v14.708c0,5.903-2.271,9.432-8.41,9.432C193.851,109.424,191.587,105.896,191.587,99.992"/>
	<path fill="#A9A9A9" d="M233.165,109.115h-4.408l-4.575-10.105h-3.765v10.105h-4.034v-23.83h7.771c4.812,0,8.569,1.726,8.569,6.948
		c0,3.562-2.136,5.351-4.514,6.201L233.165,109.115z M224.01,95.896c3.021,0,4.575-0.981,4.575-3.733
		c0-2.646-1.585-3.589-4.338-3.589h-3.83v7.322H224.01z"/>
	<polygon fill="#A9A9A9" points="240.064,85.284 254.235,85.284 254.235,88.578 244.094,88.578 244.094,95.082 252.091,95.082 
		252.091,98.306 244.094,98.306 244.094,105.822 254.843,105.822 254.843,109.11 240.064,109.11 	"/>
	<path fill="#A9A9A9" d="M261.655,85.284h5.949c7.769,0,11.501,4.205,11.501,11.828c0,7.767-3.8,12.003-11.295,12.003h-6.155V85.284
		z M267.37,105.822c5.562,0,7.465-2.567,7.465-8.71c0-5.391-1.493-8.539-6.963-8.539h-2.166v17.249H267.37z"/>
	<path fill="#C0C0C0" d="M57.329,132.39C25.721,132.39,0,106.668,0,75.061c0-31.608,25.721-57.324,57.329-57.324
		c31.604,0,57.318,25.716,57.323,57.324C114.648,106.668,88.933,132.39,57.329,132.39 M57.329,35.87
		c-10.463,0-20.306,4.078-27.717,11.48c-7.401,7.406-11.479,17.248-11.479,27.711c0,10.461,4.077,20.303,11.479,27.713
		c7.406,7.396,17.248,11.476,27.717,11.479c10.462-0.004,20.304-4.082,27.715-11.483c7.393-7.405,11.471-17.248,11.475-27.708
		c-0.004-10.463-4.082-20.305-11.479-27.715C77.629,39.948,67.787,35.87,57.329,35.87"/>
	<rect x="119.774" y="8.908" fill="#C0C0C0" width="4.47" height="4.47"/>
	<rect x="119.774" fill="#C0C0C0" width="4.47" height="4.479"/>
	<rect x="107.198" y="13.346" fill="#C0C0C0" width="4.174" height="4.364"/>
	<rect x="98.923" y="21.916" width="4.21" height="4.174"/>
	<rect x="111.372" y="17.711" width="4.681" height="4.205"/>
	<rect x="94.731" y="17.917" width="4.192" height="3.999"/>
	<rect x="107.198" y="21.916" width="4.174" height="4.174"/>
	<rect x="115.353" y="4.478" width="4.422" height="4.43"/>
	<rect x="107.198" y="8.908" width="8.153" height="4.438"/>
	<rect x="103.133" y="13.347" width="4.064" height="8.569"/>
	<path d="M103.134,26.09v4.206h-4.21V26.09H91.94v3.03h-3.742v3.738h4.179v4.166h-4.179v-4.166h-4.443v6.535h-4.201v4.17h-2.787
		v4.188H73.7c-3.443,5.121-12.074,21.084-14.681,27.583c-9.405-13.087-16.707-18.274-22.458-20.15
		c-3.1-0.934-6.838,2.444-1.687,7.759C46.707,75.955,50.433,86.729,54.03,95.324c1.903,4.53,10.433,5.235,12.146,0.62
		c3.642-9.754,8.922-20.711,15.175-29.712v-4.663h3.338v-4.206h3.51v-4.874h4.191V47.79h-4.24v-4.271h4.24v4.271h4.148l-0.009-4.227
		h3.324V38.46h3.743v-3.51h3.603v-8.86H103.134z"/>
	<path fill="#A9A9A9" d="M22.263,152.041h3.139v2.285c1.012-1.429,2.438-2.57,4.644-2.57c3.242,0,6.38,2.57,6.38,7.106v0.052
		c0,4.541-3.113,7.106-6.38,7.106c-2.256,0-3.684-1.141-4.644-2.412v6.279h-3.139V152.041z M33.235,158.914v-0.051
		c0-2.646-1.79-4.384-3.917-4.384s-3.994,1.765-3.994,4.384v0.051c0,2.646,1.867,4.387,3.994,4.387
		C31.469,163.301,33.235,161.613,33.235,158.914"/>
	<path fill="#A9A9A9" d="M38.982,158.967v-0.053c0-3.914,3.114-7.158,7.316-7.158s7.289,3.19,7.289,7.106v0.052
		c0,3.894-3.112,7.135-7.34,7.135C42.07,166.049,38.982,162.858,38.982,158.967 M50.449,158.967v-0.053
		c0-2.412-1.738-4.408-4.202-4.408c-2.519,0-4.125,1.972-4.125,4.356v0.052c0,2.387,1.737,4.412,4.176,4.412
		C48.84,163.326,50.449,161.328,50.449,158.967"/>
	<polygon fill="#A9A9A9" points="55.102,152.041 58.319,152.041 61.067,161.435 64.103,151.99 66.774,151.99 69.834,161.435 
		72.637,152.041 75.774,152.041 71.289,165.842 68.485,165.842 65.427,156.478 62.337,165.842 59.539,165.842 	"/>
	<path fill="#A9A9A9" d="M77.386,158.94v-0.053c0-3.916,2.777-7.133,6.693-7.133c4.357,0,6.562,3.424,6.562,7.369
		c0,0.283-0.025,0.568-0.051,0.881H80.526c0.337,2.229,1.918,3.475,3.942,3.475c1.531,0,2.621-0.567,3.709-1.633l1.841,1.633
		c-1.296,1.558-3.086,2.568-5.601,2.568C80.448,166.049,77.386,163.168,77.386,158.94 M87.529,157.931
		c-0.207-2.023-1.399-3.604-3.476-3.604c-1.92,0-3.267,1.479-3.553,3.604H87.529z"/>
	<path fill="#A9A9A9" d="M93.911,152.041h3.139v3.086c0.854-2.047,2.437-3.446,4.849-3.346v3.319h-0.18
		c-2.751,0-4.669,1.791-4.669,5.424v5.214h-3.139V152.041z"/>
	<path fill="#A9A9A9" d="M103.721,158.94v-0.053c0-3.916,2.778-7.133,6.694-7.133c4.357,0,6.562,3.424,6.562,7.369
		c0,0.283-0.025,0.568-0.05,0.881h-10.066c0.339,2.229,1.921,3.475,3.942,3.475c1.532,0,2.622-0.567,3.71-1.633l1.842,1.633
		c-1.298,1.558-3.087,2.568-5.602,2.568C106.784,166.049,103.721,163.168,103.721,158.94 M113.865,157.931
		c-0.207-2.023-1.4-3.604-3.477-3.604c-1.92,0-3.267,1.479-3.551,3.604H113.865z"/>
	<path fill="#A9A9A9" d="M119.524,158.914v-0.051c0-4.537,3.086-7.107,6.354-7.107c2.256,0,3.683,1.144,4.669,2.412v-7.367h3.14
		v18.938h-3.14v-2.283c-1.011,1.426-2.438,2.566-4.669,2.566C122.663,166.021,119.524,163.455,119.524,158.914 M130.601,158.914
		v-0.051c0-2.646-1.868-4.384-3.969-4.384c-2.153,0-3.942,1.66-3.942,4.384v0.051c0,2.646,1.815,4.387,3.942,4.387
		C128.732,163.301,130.601,161.535,130.601,158.914"/>
	<path fill="#A9A9A9" d="M148.513,163.608v2.129h-3.139V146.8h3.139v7.525c1.011-1.428,2.438-2.57,4.644-2.57
		c3.241,0,6.381,2.57,6.381,7.107v0.051c0,4.541-3.114,7.107-6.381,7.107C150.9,166.021,149.473,164.881,148.513,163.608
		 M156.347,158.914v-0.051c0-2.646-1.791-4.384-3.917-4.384c-2.128,0-3.995,1.765-3.995,4.384v0.051
		c0,2.646,1.867,4.387,3.995,4.387C154.582,163.301,156.347,161.613,156.347,158.914"/>
	<path fill="#A9A9A9" d="M161.675,169.135l1.061-2.334c0.572,0.312,1.193,0.521,1.844,0.521c0.884,0,1.427-0.391,1.943-1.582
		l-5.705-13.697h3.346l3.893,10.168l3.554-10.168h3.269l-5.447,14.086c-1.088,2.801-2.308,3.84-4.514,3.84
		C163.595,169.967,162.635,169.653,161.675,169.135"/>
	<polygon fill="#393939" points="184.152,147.58 187.679,147.58 193.153,161.535 198.599,147.58 202.05,147.58 194.502,165.867 
		191.702,165.867 	"/>
	<path fill="#393939" d="M202.692,158.94v-0.053c0-3.916,2.775-7.133,6.693-7.133c4.358,0,6.562,3.424,6.562,7.369
		c0,0.283-0.025,0.568-0.051,0.881h-10.063c0.338,2.229,1.92,3.475,3.94,3.475c1.532,0,2.62-0.567,3.709-1.633l1.845,1.633
		c-1.3,1.558-3.088,2.568-5.604,2.568C205.753,166.049,202.692,163.168,202.692,158.94 M212.834,157.931
		c-0.207-2.023-1.4-3.604-3.476-3.604c-1.92,0-3.268,1.479-3.554,3.604H212.834z"/>
	<path fill="#393939" d="M219.216,152.041h3.139v3.086c0.856-2.047,2.439-3.446,4.854-3.346v3.319h-0.184
		c-2.75,0-4.67,1.791-4.67,5.424v5.214h-3.139V152.041z"/>
	<path fill="#393939" d="M229.772,146.959h3.37v2.979h-3.37V146.959z M229.901,152.041h3.141v13.697h-3.141V152.041z"/>
	<path fill="#393939" d="M236.296,163.094l1.92-2.284c1.739,1.506,3.477,2.358,5.732,2.358c1.973,0,3.218-0.906,3.218-2.281v-0.053
		c0-1.295-0.729-1.998-4.099-2.772c-3.865-0.935-6.046-2.074-6.046-5.422v-0.054c0-3.112,2.594-5.267,6.199-5.267
		c2.646,0,4.747,0.806,6.588,2.283l-1.71,2.41c-1.635-1.219-3.271-1.867-4.931-1.867c-1.867,0-2.954,0.961-2.954,2.154v0.053
		c0,1.4,0.827,2.023,4.307,2.854c3.838,0.935,5.834,2.308,5.834,5.317v0.049c0,3.4-2.673,5.423-6.485,5.423
		C241.095,165.996,238.476,165.037,236.296,163.094"/>
	<path fill="#393939" d="M253.816,146.959h3.373v2.979h-3.373V146.959z M253.948,152.041h3.137v13.697h-3.137V152.041z"/>
	<path fill="#393939" d="M261.034,168.308l1.167-2.359c1.452,0.906,3.011,1.449,4.877,1.449c2.803,0,4.33-1.449,4.33-4.201v-1.062
		c-1.141,1.477-2.566,2.516-4.821,2.516c-3.219,0-6.228-2.387-6.228-6.407v-0.054c0-4.045,3.034-6.432,6.228-6.432
		c2.308,0,3.733,1.064,4.798,2.334v-2.049h3.137v10.895c0,2.31-0.594,4.021-1.735,5.162c-1.245,1.244-3.164,1.844-5.631,1.844
		C264.9,169.94,262.798,169.369,261.034,168.308 M271.435,158.24v-0.054c0-2.254-1.84-3.787-4.021-3.787
		c-2.18,0-3.892,1.507-3.892,3.765v0.051c0,2.259,1.738,3.787,3.892,3.787C269.595,162.002,271.435,160.447,271.435,158.24"/>
	<path fill="#393939" d="M278.556,152.041h3.137v2.127c0.885-1.295,2.151-2.412,4.28-2.412c3.088,0,4.877,2.076,4.877,5.265v8.719
		h-3.14v-7.783c0-2.127-1.062-3.346-2.93-3.346c-1.817,0-3.089,1.271-3.089,3.397v7.729h-3.137L278.556,152.041L278.556,152.041z"/>
</g>
</svg>
