<?xml version="1.0" encoding="utf-8"?>
<!-- Generator: Adobe Illustrator 16.0.0, SVG Export Plug-In . SVG Version: 6.00 Build 0)  -->
<svg version="1.2" baseProfile="tiny" id="Layer_1" xmlns="http://www.w3.org/2000/svg" xmlns:xlink="http://www.w3.org/1999/xlink"
	 x="0px" y="0px" width="187.086px" height="121.408px" viewBox="0 0 187.086 121.408" xml:space="preserve">
<g>
	<polygon fill="#A9A9A9" points="0.474,0.005 0.474,84.197 119.16,84.197 128.958,63.021 138.914,84.354 168.604,84.354 168.604,0 	
		"/>
	<path d="M9.523,105.358c-1.35-0.53-2.095-0.772-3.475-0.772c-1.488,0-3.235,0.531-3.235,2.472c0,3.555,7.959,2.731,7.959,8.834
		c0,3.952-3.053,5.519-6.768,5.519c-1.298,0-2.573-0.367-3.793-0.771l0.266-2.466c0.903,0.371,2.494,0.9,3.844,0.9
		c1.515,0,3.639-0.849,3.639-3.021c0-4.143-7.959-3-7.959-8.758c0-3.295,2.596-5.043,5.94-5.043c1.22,0,2.681,0.213,3.954,0.662
		L9.523,105.358L9.523,105.358z"/>
	<polygon points="21.941,102.572 32.315,102.572 32.315,104.906 24.596,104.906 24.596,110.317 31.627,110.317 31.627,112.656 
		24.596,112.656 24.596,118.758 32.315,118.758 32.315,121.094 21.941,121.094 	"/>
	<path d="M55.453,105.623c-1.167-0.69-2.467-1.037-3.823-1.037c-4.267,0-7.108,3.078-7.108,7.242c0,4.354,3.133,7.246,6.977,7.246
		c1.329,0,3.104-0.345,4.037-0.9l0.154,2.574c-1.404,0.58-3.129,0.66-4.215,0.66c-5.863,0-9.765-3.767-9.765-9.656
		c0-5.707,4.139-9.5,9.79-9.5c1.435,0,2.84,0.213,4.166,0.795L55.453,105.623L55.453,105.623z"/>
	<path d="M82.038,113.426c0,5.201-2.625,7.982-7.186,7.982c-4.564,0-7.193-2.781-7.193-7.982v-10.854h2.654v10.504
		c0,3.557,1.113,5.998,4.539,5.998c3.419,0,4.533-2.441,4.533-5.998v-10.504h2.653V113.426L82.038,113.426z"/>
	<path d="M98.041,104.906h2.546c2.438,0,3.713,1.062,3.713,2.731c0,1.778-1.483,2.894-4.004,2.894h-2.255V104.906L98.041,104.906z
		 M95.387,121.094h2.654v-8.229h1.59c1.41,0,2.281,0,3.104,1.803l2.842,6.426h3.023l-3.504-7.379
		c-0.582-1.143-0.978-1.539-1.806-1.856v-0.051c2.151-0.375,3.824-1.961,3.824-4.224c0-4.426-3.53-5.012-7.191-5.012h-4.536V121.094
		L95.387,121.094z"/>
	<polygon points="120.512,102.572 123.164,102.572 123.164,121.094 120.512,121.094 	"/>
	<polygon points="138.211,104.906 132.455,104.906 132.455,102.572 146.621,102.572 146.621,104.906 140.861,104.906 
		140.861,121.094 138.211,121.094 	"/>
	<polygon points="160.552,113.344 153.312,102.572 156.41,102.572 161.934,110.877 167.316,102.572 170.421,102.572 
		163.206,113.344 163.206,121.094 160.552,121.094 	"/>
	<polygon fill="#FFFFFF" points="153.529,63.002 133.135,16.441 133.143,16.438 133.135,16.438 133.135,16.433 133.131,16.438 
		124.939,16.438 105.005,63.021 113.79,63.021 128.966,26.491 144.793,63.021 	"/>
	<path fill="#FFFFFF" d="M46.968,43.066c6.402-2.391,9.464-7.678,9.39-13.065c-0.114-8.176-6.528-13.885-15.6-13.885H24.714h-3.573
		v46.828h7.145c0,0,0-33.979,0-39.99c4.253,0,12.065,0,12.065,0c4.044,0,8.388,2.104,8.458,7.146
		c0.062,4.491-3.291,7.295-8.971,7.538l-0.11,0.005L35.4,37.68l14.41,25.34l8.439-0.02C58.25,63.002,51.316,50.752,46.968,43.066
		L46.968,43.066z"/>
	<path fill="#FFFFFF" d="M66.042,28.208c0,9.325,9.254,11.956,16.449,13.984c7.496,2.119,10.106,4.508,10.106,8.129
		c0,6.04-6.127,6.983-9.915,6.983c-5.204,0-9.496-1.453-13.695-4.046l-3.584,6.073c5.299,3.268,10.791,4.79,17.279,4.79
		c10.837,0,18.039-5.615,18.039-14.307c0-9.706-8.76-12.392-16.124-14.473c-7.501-2.12-10.434-3.913-10.434-7.535
		c0-5.487,6.714-6.02,9.12-6.02c3.784,0,8.592,1.268,11.439,2.737l3.016-5.936c-3.84-1.986-9.731-3.315-14.656-3.315
		C72.603,15.272,66.042,20.044,66.042,28.208L66.042,28.208z"/>
	<polygon points="173.162,94.426 179.141,94.426 179.141,95.31 176.648,95.31 176.648,101.787 175.652,101.787 175.652,95.31 
		173.162,95.31 	"/>
	<path d="M186.123,101.787v-4.349c0-0.215,0.021-1.147,0.021-1.836h-0.021l-2.071,6.185h-0.983l-2.07-6.172h-0.021
		c0,0.676,0.021,1.608,0.021,1.823v4.349h-0.964v-7.361h1.425l2.104,6.224h0.021l2.092-6.224h1.415v7.361H186.123L186.123,101.787z"
		/>
</g>
</svg>
