<?xml version="1.0" encoding="utf-8"?>
<!-- Generator: Adobe Illustrator 16.0.0, SVG Export Plug-In . SVG Version: 6.00 Build 0)  -->
<!DOCTYPE svg PUBLIC "-//W3C//DTD SVG 1.1//EN" "http://www.w3.org/Graphics/SVG/1.1/DTD/svg11.dtd">
<svg version="1.1" id="Capa_1" xmlns="http://www.w3.org/2000/svg" xmlns:xlink="http://www.w3.org/1999/xlink" x="0px" y="0px"
	 width="120px" height="97.475px" viewBox="40 11.263 120 97.475" enable-background="new 40 11.263 120 97.475"
	 xml:space="preserve">
<g>
	<g>
		<path fill="#059FDB" d="M160,22.796c-4.416,1.957-9.156,3.284-14.135,3.876c5.084-3.044,8.976-7.874,10.82-13.61
			c-4.77,2.819-10.033,4.867-15.643,5.977c-4.491-4.792-10.88-7.776-17.967-7.776c-13.594,0-24.617,11.023-24.617,24.611
			c0,1.927,0.217,3.809,0.637,5.609C78.64,40.455,60.501,30.654,48.361,15.762c-2.122,3.63-3.329,7.859-3.329,12.373
			c0,8.541,4.349,16.077,10.948,20.486c-4.034-0.135-7.829-1.245-11.15-3.089v0.308c0,11.923,8.489,21.873,19.744,24.138
			c-2.062,0.555-4.236,0.863-6.486,0.863c-1.59,0-3.127-0.158-4.634-0.458c3.134,9.786,12.223,16.901,22.991,17.097
			c-8.421,6.6-19.039,10.521-30.572,10.521c-1.987,0-3.944-0.12-5.872-0.337c10.896,6.996,23.831,11.075,37.733,11.075
			c45.285,0,70.037-37.509,70.037-70.037l-0.082-3.187C152.523,32.064,156.708,27.73,160,22.796z"/>
	</g>
</g>
</svg>
