<?xml version="1.0" encoding="utf-8"?>
<!-- Generator: Adobe Illustrator 16.0.0, SVG Export Plug-In . SVG Version: 6.00 Build 0)  -->
<!DOCTYPE svg PUBLIC "-//W3C//DTD SVG 1.1 Tiny//EN" "http://www.w3.org/Graphics/SVG/1.1/DTD/svg11-tiny.dtd">
<svg version="1.1" baseProfile="tiny" id="Capa_1" xmlns="http://www.w3.org/2000/svg" xmlns:xlink="http://www.w3.org/1999/xlink"
	 x="0px" y="0px" width="80.754px" height="96.905px" viewBox="4.623 0.285 80.754 96.905" xml:space="preserve">
<g>
	<path id="YouTube" fill="#059FDB" d="M72.93,71.167h-5.318l0.025-3.089c0-1.373,1.127-2.496,2.504-2.496h0.34
		c1.379,0,2.512,1.123,2.512,2.496L72.93,71.167z M52.98,64.546c-1.35,0-2.453,0.907-2.453,2.02v15.021
		c0,1.108,1.104,2.015,2.453,2.015c1.354,0,2.461-0.904,2.461-2.015V66.565C55.441,65.454,54.336,64.546,52.98,64.546z
		 M85.377,56.144v28.581c0,6.854-5.945,12.465-13.211,12.465H17.835c-7.269,0-13.212-5.609-13.212-12.465V56.144
		c0-6.855,5.943-12.467,13.212-12.467h54.331C79.432,43.677,85.377,49.288,85.377,56.144z M21.46,87.827l-0.005-30.104l6.734,0.003
		v-4.462l-17.954-0.027v4.386l5.604,0.018v30.188L21.46,87.827L21.46,87.827z M41.648,62.206h-5.615v16.076
		c0,2.325,0.142,3.488-0.008,3.898c-0.457,1.246-2.51,2.57-3.311,0.135c-0.136-0.426-0.016-1.712-0.018-3.922l-0.023-16.188H27.09
		l0.018,15.935c0.006,2.44-0.056,4.263,0.021,5.093c0.138,1.46,0.088,3.163,1.444,4.137c2.525,1.819,7.367-0.271,8.578-2.872
		l-0.01,3.319l4.51,0.005L41.648,62.206L41.648,62.206z M59.611,80.616l-0.014-13.381c-0.005-5.103-3.818-8.153-8.996-4.027
		l0.021-9.945l-5.607,0.009l-0.027,34.337l4.613-0.067l0.42-2.139C55.914,90.807,59.619,87.102,59.611,80.616z M77.184,78.841
		l-4.209,0.022c-0.002,0.167-0.01,0.359-0.012,0.57v2.349c0,1.258-1.039,2.281-2.301,2.281h-0.824c-1.264,0-2.303-1.023-2.303-2.281
		v-0.26v-2.585v-3.334h9.64v-3.629c0-2.651-0.067-5.304-0.286-6.818c-0.689-4.796-7.423-5.557-10.822-3.102
		c-1.065,0.767-1.883,1.792-2.354,3.171c-0.479,1.38-0.716,3.264-0.716,5.655v7.979C62.996,92.124,79.105,90.25,77.184,78.841z
		 M55.587,35.529c0.289,0.704,0.739,1.275,1.351,1.705c0.604,0.424,1.375,0.638,2.297,0.638c0.812,0,1.527-0.218,2.152-0.669
		c0.623-0.449,1.146-1.12,1.574-2.015l-0.105,2.203h6.261V10.773h-4.929v20.716c0,1.122-0.924,2.041-2.054,2.041
		c-1.122,0-2.051-0.918-2.051-2.041V10.773h-5.144v17.953c0,2.287,0.043,3.812,0.109,4.584
		C55.121,34.077,55.298,34.815,55.587,35.529z M36.62,20.495c0-2.555,0.213-4.55,0.637-5.989c0.427-1.433,1.192-2.585,2.3-3.453
		c1.106-0.872,2.522-1.311,4.244-1.311c1.447,0,2.688,0.284,3.725,0.841c1.041,0.562,1.847,1.286,2.4,2.185
		c0.567,0.899,0.953,1.824,1.158,2.771c0.21,0.959,0.312,2.406,0.312,4.358v6.729c0,2.471-0.101,4.285-0.291,5.438
		c-0.19,1.155-0.602,2.229-1.233,3.232c-0.624,0.995-1.433,1.739-2.408,2.216c-0.989,0.479-2.12,0.714-3.396,0.714
		c-1.428,0-2.629-0.197-3.619-0.609c-0.994-0.409-1.762-1.026-2.309-1.845c-0.554-0.82-0.941-1.82-1.178-2.985
		c-0.234-1.164-0.348-2.915-0.348-5.248L36.62,20.495L36.62,20.495z M41.521,31.069c0,1.508,1.123,2.738,2.49,2.738
		c1.365,0,2.482-1.23,2.482-2.738v-14.17c0-1.505-1.117-2.736-2.482-2.736c-1.367,0-2.49,1.231-2.49,2.736V31.069z M24.2,38.224
		h5.903l0.006-20.415l6.978-17.488h-6.458l-3.709,12.99L23.158,0.285h-6.393l7.424,17.533L24.2,38.224z"/>
</g>
</svg>
